<?xml version="1.0" encoding="UTF-8"?>
<svg xmlns="http://www.w3.org/2000/svg" xmlns:xlink="http://www.w3.org/1999/xlink" width="810pt" height="809.999993pt" viewBox="0 0 810 809.999993" version="1.2">
<defs>
<clipPath id="clip1">
  <path d="M 8 110.867188 L 802 110.867188 L 802 697 L 8 697 Z M 8 110.867188 "/>
</clipPath>
</defs>
<g id="surface1">
<g clip-path="url(#clip1)" clip-rule="nonzero">
<path style=" stroke:none;fill-rule:nonzero;fill:rgb(100%,100%,100%);fill-opacity:1;" d="M 691.984375 174.792969 C 623.269531 119.5625 514.566406 110.21875 509.949219 109.824219 C 502.695312 109.210938 495.800781 113.320312 492.839844 119.960938 C 492.625 120.390625 490.242188 125.839844 487.609375 134.316406 C 533.046875 141.964844 588.875 157.402344 639.402344 188.75 C 647.484375 193.765625 649.976562 204.40625 644.957031 212.523438 C 641.710938 217.789062 636.042969 220.675781 630.269531 220.675781 C 627.167969 220.675781 624.027344 219.847656 621.175781 218.078125 C 534.34375 164.257812 425.859375 161.550781 405 161.550781 C 384.140625 161.550781 275.621094 164.257812 188.859375 218.078125 C 180.742188 223.128906 170.128906 220.605469 165.078125 212.523438 C 160.023438 204.40625 162.550781 193.800781 170.636719 188.75 C 221.160156 157.441406 276.953125 141.964844 322.425781 134.316406 C 319.757812 125.804688 317.375 120.390625 317.195312 119.960938 C 314.199219 113.320312 307.34375 109.136719 300.050781 109.859375 C 295.46875 110.21875 186.765625 119.5625 117.113281 175.585938 C 80.738281 209.167969 8.015625 405.699219 8.015625 575.605469 C 8.015625 578.597656 8.808594 581.558594 10.289062 584.15625 C 60.488281 672.28125 197.414062 695.371094 228.632812 696.378906 C 228.8125 696.378906 228.992188 696.378906 229.171875 696.378906 C 234.695312 696.378906 239.890625 693.746094 243.140625 689.273438 L 274.71875 645.914062 C 189.582031 623.90625 146.09375 586.570312 143.566406 584.371094 C 136.421875 578.058594 135.738281 567.164062 142.050781 560.019531 C 148.367188 552.878906 159.230469 552.195312 166.375 558.46875 C 167.421875 559.40625 247.503906 627.335938 405 627.335938 C 562.78125 627.335938 642.867188 559.121094 643.660156 558.433594 C 650.804688 552.230469 661.703125 552.878906 667.984375 560.058594 C 674.261719 567.199219 673.578125 578.058594 666.46875 584.335938 C 663.941406 586.570312 620.453125 623.871094 535.320312 645.875 L 566.898438 689.238281 C 570.144531 693.710938 575.34375 696.34375 580.863281 696.34375 C 581.042969 696.34375 581.226562 696.34375 581.40625 696.34375 C 612.621094 695.371094 749.546875 672.28125 799.746094 584.117188 C 801.191406 581.519531 801.984375 578.597656 801.984375 575.605469 C 801.984375 405.699219 729.261719 209.167969 691.984375 174.792969 Z M 292.796875 506.597656 C 259.453125 506.597656 232.382812 475.679688 232.382812 437.585938 C 232.382812 399.492188 259.414062 368.578125 292.796875 368.578125 C 326.179688 368.578125 353.210938 399.492188 353.210938 437.585938 C 353.210938 475.679688 326.179688 506.597656 292.796875 506.597656 Z M 517.203125 506.597656 C 483.855469 506.597656 456.789062 475.679688 456.789062 437.585938 C 456.789062 399.492188 483.820312 368.578125 517.203125 368.578125 C 550.546875 368.578125 577.617188 399.492188 577.617188 437.585938 C 577.617188 475.679688 550.546875 506.597656 517.203125 506.597656 Z M 517.203125 506.597656 "/>
</g>
</g>
</svg>
