<?xml version="1.0" encoding="UTF-8"?>
<svg xmlns="http://www.w3.org/2000/svg" xmlns:xlink="http://www.w3.org/1999/xlink" width="810pt" height="809.999993pt" viewBox="0 0 810 809.999993" version="1.2">
<defs>
<clipPath id="clip1">
  <path d="M 432 249 L 750.820312 249 L 750.820312 354 L 432 354 Z M 432 249 "/>
</clipPath>
<clipPath id="clip2">
  <path d="M 432 384 L 750.820312 384 L 750.820312 810 L 432 810 Z M 432 384 "/>
</clipPath>
</defs>
<g id="surface1">
<path style=" stroke:none;fill-rule:nonzero;fill:rgb(100%,100%,100%);fill-opacity:1;" d="M 196.121094 57.941406 C 203.871094 58.230469 211.621094 59.164062 219.15625 60.957031 C 286.683594 79.609375 345.09375 122.230469 383.414062 180.917969 L 171.4375 180.917969 C 136.777344 174.03125 111.804688 143.609375 111.730469 108.308594 C 111.730469 95.898438 117.902344 84.347656 128.238281 77.457031 C 148.328125 64.113281 172.011719 57.296875 196.121094 57.941406 Z M 615.410156 57.941406 C 638.804688 57.65625 661.839844 64.472656 681.289062 77.457031 C 691.621094 84.347656 697.792969 95.898438 697.792969 108.308594 C 697.71875 143.609375 672.746094 174.03125 638.089844 180.917969 L 426.109375 180.917969 C 464.429688 122.230469 522.84375 79.609375 590.441406 60.957031 C 598.621094 59.019531 607.015625 58.015625 615.410156 57.941406 Z M 493.78125 1.835938 C 490.480469 1.835938 487.320312 2.984375 484.808594 5.066406 C 443.261719 40.078125 415.5625 88.652344 406.59375 142.175781 C 406.449219 143.179688 405.515625 143.824219 404.511719 143.679688 C 403.722656 143.539062 403.074219 142.964844 402.933594 142.175781 C 393.960938 88.652344 366.261719 40.078125 324.714844 5.066406 C 318.757812 0.257812 310.003906 1.191406 305.195312 7.144531 C 300.53125 12.957031 301.25 21.425781 306.847656 26.300781 C 333.539062 48.757812 353.921875 77.816406 365.976562 110.535156 C 366.335938 111.539062 365.832031 112.613281 364.828125 112.902344 C 364.183594 113.1875 363.464844 113.046875 362.890625 112.542969 C 324.640625 75.164062 277.566406 48.1875 226.046875 34.050781 C 187.078125 24.796875 146.105469 32.1875 112.878906 54.355469 C 94.796875 66.410156 83.960938 86.640625 83.960938 108.308594 C 84.03125 158.03125 119.914062 200.433594 168.925781 208.683594 L 640.597656 208.683594 C 689.609375 200.433594 725.492188 158.03125 725.5625 108.308594 C 725.5625 86.640625 714.796875 66.410156 696.714844 54.355469 C 663.417969 32.1875 622.445312 24.796875 583.550781 34.050781 C 532.027344 48.1875 484.882812 75.164062 446.632812 112.542969 C 445.917969 113.261719 444.769531 113.261719 444.050781 112.542969 C 443.546875 111.96875 443.332031 111.25 443.621094 110.535156 C 455.675781 77.816406 476.054688 48.757812 502.679688 26.300781 C 508.5625 21.351562 509.28125 12.597656 504.328125 6.789062 C 501.671875 3.628906 497.871094 1.835938 493.78125 1.835938 "/>
<path style=" stroke:none;fill-rule:nonzero;fill:rgb(100%,100%,100%);fill-opacity:1;" d="M 114.460938 249.222656 L 77.289062 249.222656 C 67.097656 249.222656 58.773438 257.472656 58.773438 267.734375 L 58.773438 353.6875 L 377.027344 353.6875 L 377.027344 249.222656 L 77.289062 249.222656 "/>
<g clip-path="url(#clip1)" clip-rule="nonzero">
<path style=" stroke:none;fill-rule:nonzero;fill:rgb(100%,100%,100%);fill-opacity:1;" d="M 750.75 353.6875 L 750.75 267.734375 C 750.75 257.472656 742.496094 249.222656 732.238281 249.222656 L 432.570312 249.222656 L 432.570312 353.6875 L 750.75 353.6875 "/>
</g>
<g clip-path="url(#clip2)" clip-rule="nonzero">
<path style=" stroke:none;fill-rule:nonzero;fill:rgb(100%,100%,100%);fill-opacity:1;" d="M 432.570312 384.179688 L 432.570312 810 L 689.683594 810 C 699.871094 810 708.195312 801.675781 708.195312 791.488281 L 708.195312 446.023438 L 750.75 446.023438 L 750.75 384.179688 L 432.570312 384.179688 "/>
</g>
<path style=" stroke:none;fill-rule:nonzero;fill:rgb(100%,100%,100%);fill-opacity:1;" d="M 377.027344 384.179688 L 58.773438 384.179688 L 58.773438 446.023438 L 101.398438 446.023438 L 101.398438 791.488281 C 101.398438 801.675781 109.652344 810 119.914062 810 L 377.027344 810 L 377.027344 384.179688 "/>
</g>
</svg>
