<?xml version="1.0" encoding="UTF-8"?>
<svg xmlns="http://www.w3.org/2000/svg" xmlns:xlink="http://www.w3.org/1999/xlink" width="810pt" height="809.999993pt" viewBox="0 0 810 809.999993" version="1.2">
<g id="surface1">
<path style=" stroke:none;fill-rule:nonzero;fill:rgb(100%,100%,100%);fill-opacity:1;" d="M 765.296875 655.9375 L 511.089844 444.585938 C 503.660156 438.410156 492.890625 438.410156 485.460938 444.585938 L 416.976562 501.527344 C 410.078125 507.253906 400.089844 507.253906 393.203125 501.527344 L 324.714844 444.585938 C 317.289062 438.410156 306.515625 438.410156 299.078125 444.585938 L 44.871094 655.9375 C 41.375 658.84375 43.429688 664.535156 47.980469 664.535156 L 762.195312 664.535156 C 766.742188 664.535156 768.792969 658.84375 765.296875 655.9375 "/>
<path style=" stroke:none;fill-rule:nonzero;fill:rgb(100%,100%,100%);fill-opacity:1;" d="M 267.328125 396.875 L 8.070312 181.324219 C 4.910156 178.695312 0.109375 180.945312 0.109375 185.066406 L 0.109375 625.5625 C 0.109375 629.679688 4.910156 631.933594 8.070312 629.3125 L 267.328125 413.761719 C 272.609375 409.367188 272.609375 401.257812 267.328125 396.875 "/>
<path style=" stroke:none;fill-rule:nonzero;fill:rgb(100%,100%,100%);fill-opacity:1;" d="M 44.882812 154.699219 L 395.359375 446.089844 C 401 450.777344 409.175781 450.777344 414.8125 446.089844 L 765.296875 154.699219 C 768.792969 151.792969 766.742188 146.089844 762.195312 146.089844 L 47.980469 146.089844 C 43.429688 146.089844 41.375 151.792969 44.882812 154.699219 "/>
<path style=" stroke:none;fill-rule:nonzero;fill:rgb(100%,100%,100%);fill-opacity:1;" d="M 802.109375 181.324219 L 542.851562 396.875 C 537.570312 401.257812 537.570312 409.367188 542.851562 413.761719 L 802.109375 629.3125 C 805.269531 631.933594 810.0625 629.691406 810.0625 625.570312 L 810.0625 185.066406 C 810.0625 180.945312 805.269531 178.695312 802.109375 181.324219 "/>
</g>
</svg>
