<?xml version="1.0" encoding="UTF-8"?>
<svg xmlns="http://www.w3.org/2000/svg" xmlns:xlink="http://www.w3.org/1999/xlink" width="810pt" height="809.999993pt" viewBox="0 0 810 809.999993" version="1.2">
<defs>
<clipPath id="clip1">
  <path d="M 3 63 L 805 63 L 805 749.25 L 3 749.25 Z M 3 63 "/>
</clipPath>
</defs>
<g id="surface1">
<g clip-path="url(#clip1)" clip-rule="nonzero">
<path style=" stroke:none;fill-rule:evenodd;fill:rgb(100%,100%,100%);fill-opacity:1;" d="M 389.171875 125.730469 L 389.171875 675.675781 L 77.414062 613.386719 C 69.21875 611.6875 62.726562 603.804688 62.726562 595.765625 L 62.726562 162.054688 L 33.050781 162.054688 L 33.050781 645.382812 L 389.171875 716.792969 L 404.011719 719.265625 L 418.847656 716.636719 L 774.96875 645.382812 L 774.96875 162.054688 L 745.292969 162.054688 L 745.292969 595.765625 C 745.292969 603.804688 738.800781 611.6875 730.609375 613.386719 L 418.847656 675.675781 L 418.847656 125.730469 L 727.828125 63.902344 C 737.410156 62.046875 745.292969 68.230469 745.292969 78.125 L 745.292969 132.375 L 789.960938 132.375 C 798 132.375 804.648438 139.175781 804.648438 147.214844 L 804.648438 654.808594 C 804.648438 663.003906 798.308594 671.039062 789.808594 672.738281 L 409.574219 748.785156 C 406.484375 749.40625 401.382812 749.40625 398.292969 748.785156 L 18.058594 672.738281 C 10.019531 671.039062 3.375 663.003906 3.375 654.808594 L 3.375 147.214844 C 3.375 139.023438 9.710938 132.375 18.058594 132.375 L 62.726562 132.375 L 62.726562 78.125 C 62.726562 68.386719 70.457031 62.046875 80.195312 63.902344 Z M 389.171875 125.730469 "/>
</g>
</g>
</svg>
