<?xml version="1.0" encoding="UTF-8"?>
<svg xmlns="http://www.w3.org/2000/svg" xmlns:xlink="http://www.w3.org/1999/xlink" width="810pt" height="809.999993pt" viewBox="0 0 810 809.999993" version="1.2">
<defs>
<clipPath id="clip1">
  <path d="M 56 8 L 704 8 L 704 803.082031 L 56 803.082031 Z M 56 8 "/>
</clipPath>
</defs>
<g id="surface1">
<path style=" stroke:none;fill-rule:nonzero;fill:rgb(100%,100%,100%);fill-opacity:1;" d="M 102.925781 715.480469 C 109.140625 717.34375 116.601562 714.238281 118.464844 707.402344 C 120.953125 701.1875 117.222656 693.734375 110.386719 691.871094 C 82.414062 682.550781 58.175781 652.105469 45.742188 627.253906 C 30.828125 598.054688 27.71875 563.882812 37.664062 533.441406 C 39.527344 526.605469 36.421875 519.769531 29.582031 517.90625 C 22.746094 516.042969 15.910156 519.148438 14.042969 525.984375 C 2.234375 562.640625 5.964844 603.644531 23.988281 639.058594 C 30.828125 653.347656 58.175781 700.566406 102.925781 715.480469 Z M 102.925781 715.480469 "/>
<path style=" stroke:none;fill-rule:nonzero;fill:rgb(100%,100%,100%);fill-opacity:1;" d="M 95.46875 530.332031 C 88.628906 528.46875 81.792969 531.574219 79.929688 538.410156 C 72.46875 560.777344 74.957031 585.628906 85.523438 606.753906 C 89.875 615.449219 106.65625 644.03125 134.003906 653.347656 C 140.21875 655.214844 147.679688 652.105469 149.542969 645.273438 C 152.027344 639.058594 148.300781 631.605469 141.460938 629.738281 C 127.167969 624.769531 114.113281 608.617188 107.277344 595.570312 C 99.195312 580.035156 97.953125 562.019531 102.925781 545.867188 C 105.414062 539.652344 101.683594 532.816406 95.46875 530.332031 Z M 95.46875 530.332031 "/>
<path style=" stroke:none;fill-rule:nonzero;fill:rgb(100%,100%,100%);fill-opacity:1;" d="M 676.617188 79.894531 C 675.375 86.730469 679.726562 92.941406 686.5625 94.804688 C 715.152344 100.398438 741.878906 127.113281 756.796875 150.101562 C 774.824219 176.816406 781.660156 210.367188 776.066406 242.050781 C 774.824219 248.886719 779.171875 255.097656 786.011719 256.34375 C 786.632812 256.34375 787.253906 256.34375 788.496094 256.34375 C 794.089844 256.34375 799.683594 251.992188 800.929688 246.402344 C 807.765625 208.503906 799.683594 168.738281 777.929688 136.433594 C 769.230469 123.386719 736.90625 79.894531 691.535156 70.574219 C 684.078125 68.710938 677.859375 73.058594 676.617188 79.894531 Z M 676.617188 79.894531 "/>
<path style=" stroke:none;fill-rule:nonzero;fill:rgb(100%,100%,100%);fill-opacity:1;" d="M 720.746094 251.992188 C 727.585938 253.234375 733.800781 248.886719 735.042969 242.050781 C 739.394531 219.0625 734.421875 194.832031 720.746094 174.953125 C 715.152344 166.875 695.886719 140.78125 667.914062 135.191406 C 661.078125 133.945312 654.863281 138.296875 653 145.128906 C 651.753906 151.964844 656.105469 158.175781 662.945312 160.042969 C 677.859375 163.148438 691.535156 177.4375 699.613281 189.242188 C 708.9375 203.53125 712.667969 220.929688 710.179688 237.703125 C 709.558594 244.539062 713.910156 250.75 720.746094 251.992188 Z M 720.746094 251.992188 "/>
<g clip-path="url(#clip1)" clip-rule="nonzero">
<path style=" stroke:none;fill-rule:nonzero;fill:rgb(100%,100%,100%);fill-opacity:1;" d="M 701.480469 545.867188 C 700.238281 530.332031 698.992188 516.664062 698.992188 516.664062 L 672.886719 237.703125 C 668.539062 201.046875 635.59375 174.332031 599.546875 178.679688 C 567.226562 182.40625 542.363281 209.746094 541.121094 242.671875 L 539.253906 281.195312 C 493.261719 206.636719 400.648438 55.042969 399.40625 53.800781 C 390.082031 38.265625 375.164062 27.707031 357.761719 23.976562 C 340.359375 20.25 322.957031 22.734375 308.039062 32.675781 C 303.066406 35.78125 299.335938 38.890625 295.605469 43.238281 L 411.835938 233.355469 C 414.945312 238.945312 413.703125 245.78125 409.351562 249.507812 C 403.757812 254.476562 395.054688 252.613281 390.703125 246.402344 L 281.3125 66.847656 L 264.53125 40.132812 C 255.207031 24.597656 240.289062 14.035156 222.886719 10.308594 C 205.480469 6.582031 188.078125 9.066406 173.160156 19.007812 C 142.707031 38.265625 133.382812 79.894531 152.027344 111.582031 L 154.515625 115.308594 L 288.148438 334.003906 C 291.257812 339.59375 290.011719 346.429688 285.664062 350.15625 C 280.066406 355.128906 271.367188 353.265625 267.015625 347.050781 L 134.625 128.355469 C 129.03125 130.21875 124.058594 132.703125 119.085938 135.191406 C 88.628906 154.449219 79.308594 196.078125 97.953125 227.761719 L 120.953125 265.660156 L 122.195312 268.148438 L 129.652344 279.953125 L 202.996094 402.347656 C 206.105469 407.9375 204.859375 414.152344 199.886719 418.5 C 194.292969 423.46875 184.972656 421.605469 181.242188 415.394531 L 102.925781 283.058594 C 97.332031 284.921875 92.359375 287.40625 88.007812 289.890625 C 56.929688 309.773438 47.609375 350.777344 66.875 382.464844 L 240.289062 665.773438 C 288.148438 744.058594 377.652344 803.082031 471.503906 803.082031 C 506.933594 803.082031 542.363281 795.003906 577.167969 776.367188 C 577.167969 776.367188 577.789062 776.367188 577.789062 775.746094 L 597.679688 762.699219 C 647.40625 731.011719 677.238281 694.976562 693.398438 646.515625 C 705.832031 611.101562 703.964844 578.171875 701.480469 545.867188 Z M 701.480469 545.867188 "/>
</g>
</g>
</svg>
