<?xml version="1.0"?>
<svg xmlns="http://www.w3.org/2000/svg" xmlns:xlink="http://www.w3.org/1999/xlink" xmlns:svgjs="http://svgjs.com/svgjs" version="1.1" width="512" height="512" x="0" y="0" viewBox="0 0 512 512" style="enable-background:new 0 0 512 512" xml:space="preserve" class=""><g><g xmlns="http://www.w3.org/2000/svg"><path d="m91.159 369.237v-369.237h-24.59c-36.228 0-65.702 29.474-65.702 65.702v324.398c15.051-12.985 34.624-20.864 56.015-20.864h34.277z" fill="#ffffff" data-original="#000000" style="" class=""/><path d="m257.85 369.237c13.34-65.139 71.1-114.287 140.124-114.287 3.229 0 6.431.118 9.607.33v-255.28h-286.477v369.237zm-45.866-281.066h100.22v29.945h-100.22zm-33.853 65.01h167.926v29.945h-167.926z" fill="#ffffff" data-original="#000000" style="" class=""/><path d="m274.506 470.091h-197.755v-29.945h184.546c-4.099-13.257-6.318-27.33-6.344-41.909h-198.071c-31.365 0-56.882 25.517-56.882 56.881s25.517 56.882 56.882 56.882h254.858c-14.991-11.365-27.678-25.611-37.234-41.909z" fill="#ffffff" data-original="#000000" style="" class=""/><path d="m397.975 283.95c-62.874 0-114.026 51.151-114.026 114.025s51.152 114.025 114.026 114.025c62.873 0 114.025-51.152 114.025-114.025s-51.152-114.025-114.025-114.025zm0 175.052-54.656-54.657 21.174-21.174 18.509 18.509v-64.733h29.945v64.733l18.509-18.509 21.174 21.174z" fill="#ffffff" data-original="#000000" style="" class=""/></g></g></svg>
