<svg width="38" height="34" viewBox="0 0 38 34" fill="none" xmlns="http://www.w3.org/2000/svg">
<path fill-rule="evenodd" clip-rule="evenodd" d="M11.9754 0H26.1707C32.7028 0 38 4.75787 38 10.625V23.375C38 29.2421 32.7028 34 26.1707 34H11.9754C5.44325 34 0.146057 29.2421 0.146057 23.375V10.625C0.146057 4.75787 5.44325 0 11.9754 0ZM26.1707 30.8125C30.7368 30.8125 34.4512 27.4762 34.4512 23.375V10.625C34.4512 6.52375 30.7368 3.1875 26.1707 3.1875H11.9754C7.40929 3.1875 3.69487 6.52375 3.69487 10.625V23.375C3.69487 27.4762 7.40929 30.8125 11.9754 30.8125H26.1707Z" fill="white"/>
<path fill-rule="evenodd" clip-rule="evenodd" d="M9.60956 17C9.60956 12.3059 13.8468 8.5 19.073 8.5C24.2993 8.5 28.5365 12.3059 28.5365 17C28.5365 21.6941 24.2993 25.5 19.073 25.5C13.8468 25.5 9.60956 21.6941 9.60956 17ZM13.1584 17C13.1584 19.9282 15.8129 22.3125 19.0731 22.3125C22.3333 22.3125 24.9878 19.9282 24.9878 17C24.9878 14.0696 22.3333 11.6875 19.0731 11.6875C15.8129 11.6875 13.1584 14.0696 13.1584 17Z" fill="white"/>
<ellipse cx="29.2463" cy="7.86236" rx="1.26101" ry="1.13262" fill="white"/>
</svg>
