<svg width="34" height="34" viewBox="0 0 34 34" fill="none" xmlns="http://www.w3.org/2000/svg">
<path fill-rule="evenodd" clip-rule="evenodd" d="M10.625 0H23.375C29.2421 0 34 4.75787 34 10.625V23.375C34 29.2421 29.2421 34 23.375 34H10.625C4.75787 34 0 29.2421 0 23.375V10.625C0 4.75787 4.75787 0 10.625 0ZM23.375 30.8125C27.4763 30.8125 30.8125 27.4762 30.8125 23.375V10.625C30.8125 6.52375 27.4763 3.1875 23.375 3.1875H10.625C6.52377 3.1875 3.18752 6.52375 3.18752 10.625V23.375C3.18752 27.4762 6.52377 30.8125 10.625 30.8125H23.375Z" fill="#0D0D0D"/>
<path fill-rule="evenodd" clip-rule="evenodd" d="M8.5 17C8.5 12.3059 12.3059 8.5 17 8.5C21.6941 8.5 25.5 12.3059 25.5 17C25.5 21.6941 21.6941 25.5 17 25.5C12.3059 25.5 8.5 21.6941 8.5 17ZM11.6874 17C11.6874 19.9282 14.0717 22.3125 16.9999 22.3125C19.9282 22.3125 22.3124 19.9282 22.3124 17C22.3124 14.0696 19.9282 11.6875 16.9999 11.6875C14.0717 11.6875 11.6874 14.0696 11.6874 17Z" fill="#0D0D0D"/>
<ellipse cx="26.1375" cy="7.86242" rx="1.13263" ry="1.13262" fill="#0D0D0D"/>
</svg>
