<?xml version="1.0" standalone="no"?>
<!DOCTYPE svg PUBLIC "-//W3C//DTD SVG 20010904//EN"
 "http://www.w3.org/TR/2001/REC-SVG-20010904/DTD/svg10.dtd">
<svg version="1.0" xmlns="http://www.w3.org/2000/svg"
 width="350.000000pt" height="350.000000pt" viewBox="0 0 350.000000 350.000000"
 preserveAspectRatio="xMidYMid meet">
<metadata>
Created by potrace 1.11, written by Peter Selinger 2001-2013
</metadata>
<g transform="translate(0.000000,350.000000) scale(0.100000,-0.100000)"
fill="#000000" stroke="none">
<path d="M970 1943 c-250 -437 -472 -826 -492 -862 l-37 -67 221 -127 c122
-69 224 -124 228 -122 3 2 197 337 430 744 234 408 427 741 430 741 3 0 196
-335 429 -743 234 -408 426 -744 427 -746 2 -2 436 241 451 253 1 1 -219 389
-490 861 l-493 860 -324 2 -325 2 -455 -796z"/>
</g>
</svg>
