<svg width="40" height="34" viewBox="0 0 40 34" fill="none" xmlns="http://www.w3.org/2000/svg">
<path d="M39.6334 4.02508C38.1745 4.70769 36.6199 5.16015 34.9991 5.37985C36.6665 4.318 37.9391 2.64938 38.5374 0.638154C36.9828 1.62677 35.2664 2.32508 33.4372 2.71477C31.9611 1.03831 29.8573 0 27.5622 0C23.1094 0 19.5246 3.85508 19.5246 8.58108C19.5246 9.26108 19.5785 9.91492 19.711 10.5374C13.0244 10.1895 7.1077 6.77123 3.13301 1.564C2.4391 2.84815 2.03207 4.318 2.03207 5.90031C2.03207 8.87138 3.46648 11.5051 5.60462 13.0298C4.31242 13.0037 3.04474 12.6035 1.97077 11.9732C1.97077 11.9994 1.97077 12.0334 1.97077 12.0674C1.97077 16.2363 4.75869 19.6991 8.41461 20.4968C7.75993 20.6877 7.0464 20.7792 6.30589 20.7792C5.79097 20.7792 5.27115 20.7478 4.7832 20.6328C5.8253 24.0302 8.78241 26.5278 12.2986 26.6089C9.56214 28.8922 6.08767 30.2678 2.32631 30.2678C1.66672 30.2678 1.0341 30.2365 0.401489 30.1502C3.96424 32.6008 8.18657 34 12.7399 34C27.5402 34 35.6318 20.9231 35.6318 9.588C35.6318 9.20877 35.6195 8.84262 35.6023 8.47908C37.1986 7.27077 38.5398 5.76169 39.6334 4.02508Z" fill="white"/>
</svg>
