<svg width="40" height="34" viewBox="0 0 40 34" fill="none" xmlns="http://www.w3.org/2000/svg">
<path d="M40 4.02508C38.5125 4.70769 36.9275 5.16015 35.275 5.37985C36.975 4.318 38.2725 2.64938 38.8825 0.638154C37.2975 1.62677 35.5475 2.32508 33.6825 2.71477C32.1775 1.03831 30.0325 0 27.6925 0C23.1525 0 19.4975 3.85508 19.4975 8.58108C19.4975 9.26108 19.5525 9.91492 19.6875 10.5374C12.87 10.1895 6.8375 6.77123 2.785 1.564C2.0775 2.84815 1.6625 4.318 1.6625 5.90031C1.6625 8.87138 3.125 11.5051 5.305 13.0298C3.9875 13.0037 2.695 12.6035 1.6 11.9732C1.6 11.9994 1.6 12.0334 1.6 12.0674C1.6 16.2363 4.4425 19.6991 8.17 20.4968C7.5025 20.6877 6.775 20.7792 6.02 20.7792C5.495 20.7792 4.965 20.7478 4.4675 20.6328C5.53 24.0302 8.545 26.5278 12.13 26.6089C9.34 28.8922 5.7975 30.2678 1.9625 30.2678C1.29 30.2678 0.645 30.2365 0 30.1502C3.6325 32.6008 7.9375 34 12.58 34C27.67 34 35.92 20.9231 35.92 9.588C35.92 9.20877 35.9075 8.84262 35.89 8.47908C37.5175 7.27077 38.885 5.76169 40 4.02508Z" fill="#0D0D0D"/>
</svg>
