<svg width="51" height="34" viewBox="0 0 51 34" fill="none" xmlns="http://www.w3.org/2000/svg">
<path d="M49.1437 5.43091C48.5314 2.85491 46.3561 0.954413 43.7374 0.670913C37.5362 0.000412941 31.2596 -0.00308688 25.0119 0.000413122C18.7632 -0.00308688 12.4856 0.000412941 6.28433 0.670913C3.66715 0.954413 1.49339 2.85491 0.88117 5.43091C0.00980801 9.09941 0 13.1039 0 16.8809C0 20.6579 0 24.6619 0.871362 28.3299C1.48255 30.9054 3.65683 32.8059 6.27556 33.0899C12.4763 33.7609 18.7534 33.7644 25.0021 33.7609C31.2518 33.7644 37.5274 33.7609 43.7276 33.0899C46.3448 32.8064 48.5206 30.9059 49.1328 28.3299C50.0047 24.6614 50.0078 20.6574 50.0078 16.8809C50.0078 13.1039 50.015 9.09941 49.1437 5.43091ZM18.5505 24.3989C18.5505 19.0409 18.5505 13.7389 18.5505 8.38041C23.8504 11.0589 29.1152 13.7194 34.4487 16.4144C29.1318 19.0854 23.8644 21.7299 18.5505 24.3989Z" fill="#0D0D0D"/>
</svg>
