<?xml version="1.0" encoding="UTF-8"?>
<svg xmlns="http://www.w3.org/2000/svg" xmlns:xlink="http://www.w3.org/1999/xlink" width="810pt" height="809.999993pt" viewBox="0 0 810 809.999993" version="1.2">
<g id="surface1">
<path style=" stroke:none;fill-rule:nonzero;fill:rgb(100%,100%,100%);fill-opacity:1;" d="M 793.070312 169.53125 C 783.757812 134.703125 756.296875 107.242188 721.46875 97.929688 C 658.285156 81 405 81 405 81 C 405 81 151.714844 81 88.53125 97.929688 C 53.703125 107.242188 26.242188 134.703125 16.929688 169.53125 C 0 232.714844 0 405 0 405 C 0 405 0 577.285156 16.929688 640.46875 C 26.242188 675.296875 53.703125 702.757812 88.53125 712.070312 C 151.714844 729 405 729 405 729 C 405 729 658.285156 729 721.46875 712.070312 C 756.335938 702.757812 783.757812 675.296875 793.070312 640.46875 C 810 577.285156 810 405 810 405 C 810 405 810 232.714844 793.070312 169.53125 Z M 324 510.21875 L 324 299.78125 C 324 284.1875 340.886719 274.46875 354.375 282.246094 L 536.625 387.464844 C 550.113281 395.238281 550.113281 414.761719 536.625 422.535156 L 354.375 527.753906 C 340.886719 535.570312 324 525.8125 324 510.21875 Z M 324 510.21875 "/>
</g>
</svg>
